<svg xmlns="http://www.w3.org/2000/svg" viewBox="0 0 960 600" role="img" aria-label="AI DEEP STRATEGY">

  <defs>
    <linearGradient id="bg" x1="0" y1="0" x2="1" y2="1">
      <stop offset="0%" stop-color="#182234" />
      <stop offset="100%" stop-color="#334155" />
    </linearGradient>
    <radialGradient id="spot" cx="20%" cy="15%">
      <stop offset="0%" stop-color="rgba(255,255,255,0.22)" />
      <stop offset="100%" stop-color="rgba(255,255,255,0)" />
    </radialGradient>
    <linearGradient id="accent" x1="0" y1="0" x2="1" y2="0">
      <stop offset="0%" stop-color="#f59e0b" stop-opacity="0.95" />
      <stop offset="100%" stop-color="#f59e0b" stop-opacity="0.45" />
    </linearGradient>
    <filter id="grain" x="-10%" y="-10%" width="120%" height="120%">
      <feTurbulence type="fractalNoise" baseFrequency="0.7" numOctaves="2" seed="7" />
      <feColorMatrix type="saturate" values="0" />
      <feComponentTransfer>
        <feFuncA type="table" tableValues="0 0 0.055" />
      </feComponentTransfer>
    </filter>
  </defs>
  <rect width="960" height="600" fill="url(#bg)" />
  <rect width="960" height="600" fill="url(#spot)" />
  <rect width="960" height="600" filter="url(#grain)" />
  <rect x="18" y="18" width="924" height="564" rx="26" fill="none" stroke="rgba(255,255,255,0.24)" />
  <rect x="18" y="18" width="924" height="8" rx="4" fill="url(#accent)" />
  

  <text x="46" y="74" fill="rgba(255,255,255,0.95)" font-size="30" font-family="Montserrat, Segoe UI, sans-serif" font-weight="700" letter-spacing="1.2">AI DEEP STRATEGY</text>
  <text x="46" y="106" fill="rgba(255,255,255,0.72)" font-size="16" font-family="Segoe UI, sans-serif" letter-spacing="1">decision mesh</text>
  
<g><line x1="160" y1="232.6" x2="336" y2="226.5" stroke="rgba(255,255,255,0.18)" stroke-width="1.6" /><line x1="160" y1="232.6" x2="336" y2="271.6" stroke="rgba(255,255,255,0.18)" stroke-width="1.6" /><line x1="160" y1="232.6" x2="336" y2="312.1" stroke="rgba(255,255,255,0.18)" stroke-width="1.6" /><line x1="160" y1="232.6" x2="336" y2="354.8" stroke="rgba(255,255,255,0.18)" stroke-width="1.6" /><line x1="160" y1="232.6" x2="336" y2="407.1" stroke="rgba(255,255,255,0.18)" stroke-width="1.6" /><line x1="160" y1="287.9" x2="336" y2="226.5" stroke="rgba(255,255,255,0.18)" stroke-width="1.6" /><line x1="160" y1="287.9" x2="336" y2="271.6" stroke="rgba(255,255,255,0.18)" stroke-width="1.6" /><line x1="160" y1="287.9" x2="336" y2="312.1" stroke="rgba(255,255,255,0.18)" stroke-width="1.6" /><line x1="160" y1="287.9" x2="336" y2="354.8" stroke="rgba(255,255,255,0.18)" stroke-width="1.6" /><line x1="160" y1="287.9" x2="336" y2="407.1" stroke="rgba(255,255,255,0.18)" stroke-width="1.6" /><line x1="160" y1="339.0" x2="336" y2="226.5" stroke="rgba(255,255,255,0.18)" stroke-width="1.6" /><line x1="160" y1="339.0" x2="336" y2="271.6" stroke="rgba(255,255,255,0.18)" stroke-width="1.6" /><line x1="160" y1="339.0" x2="336" y2="312.1" stroke="rgba(255,255,255,0.18)" stroke-width="1.6" /><line x1="160" y1="339.0" x2="336" y2="354.8" stroke="rgba(255,255,255,0.18)" stroke-width="1.6" /><line x1="160" y1="339.0" x2="336" y2="407.1" stroke="rgba(255,255,255,0.18)" stroke-width="1.6" /><line x1="160" y1="393.0" x2="336" y2="226.5" stroke="rgba(255,255,255,0.18)" stroke-width="1.6" /><line x1="160" y1="393.0" x2="336" y2="271.6" stroke="rgba(255,255,255,0.18)" stroke-width="1.6" /><line x1="160" y1="393.0" x2="336" y2="312.1" stroke="rgba(255,255,255,0.18)" stroke-width="1.6" /><line x1="160" y1="393.0" x2="336" y2="354.8" stroke="rgba(255,255,255,0.18)" stroke-width="1.6" /><line x1="160" y1="393.0" x2="336" y2="407.1" stroke="rgba(255,255,255,0.18)" stroke-width="1.6" /><line x1="336" y1="226.5" x2="512" y2="231.9" stroke="rgba(255,255,255,0.18)" stroke-width="1.6" /><line x1="336" y1="226.5" x2="512" y2="288.8" stroke="rgba(255,255,255,0.18)" stroke-width="1.6" /><line x1="336" y1="226.5" x2="512" y2="343.0" stroke="rgba(255,255,255,0.18)" stroke-width="1.6" /><line x1="336" y1="226.5" x2="512" y2="389.9" stroke="rgba(255,255,255,0.18)" stroke-width="1.6" /><line x1="336" y1="271.6" x2="512" y2="231.9" stroke="rgba(255,255,255,0.18)" stroke-width="1.6" /><line x1="336" y1="271.6" x2="512" y2="288.8" stroke="rgba(255,255,255,0.18)" stroke-width="1.6" /><line x1="336" y1="271.6" x2="512" y2="343.0" stroke="rgba(255,255,255,0.18)" stroke-width="1.6" /><line x1="336" y1="271.6" x2="512" y2="389.9" stroke="rgba(255,255,255,0.18)" stroke-width="1.6" /><line x1="336" y1="312.1" x2="512" y2="231.9" stroke="rgba(255,255,255,0.18)" stroke-width="1.6" /><line x1="336" y1="312.1" x2="512" y2="288.8" stroke="rgba(255,255,255,0.18)" stroke-width="1.6" /><line x1="336" y1="312.1" x2="512" y2="343.0" stroke="rgba(255,255,255,0.18)" stroke-width="1.6" /><line x1="336" y1="312.1" x2="512" y2="389.9" stroke="rgba(255,255,255,0.18)" stroke-width="1.6" /><line x1="336" y1="354.8" x2="512" y2="231.9" stroke="rgba(255,255,255,0.18)" stroke-width="1.6" /><line x1="336" y1="354.8" x2="512" y2="288.8" stroke="rgba(255,255,255,0.18)" stroke-width="1.6" /><line x1="336" y1="354.8" x2="512" y2="343.0" stroke="rgba(255,255,255,0.18)" stroke-width="1.6" /><line x1="336" y1="354.8" x2="512" y2="389.9" stroke="rgba(255,255,255,0.18)" stroke-width="1.6" /><line x1="336" y1="407.1" x2="512" y2="231.9" stroke="rgba(255,255,255,0.18)" stroke-width="1.6" /><line x1="336" y1="407.1" x2="512" y2="288.8" stroke="rgba(255,255,255,0.18)" stroke-width="1.6" /><line x1="336" y1="407.1" x2="512" y2="343.0" stroke="rgba(255,255,255,0.18)" stroke-width="1.6" /><line x1="336" y1="407.1" x2="512" y2="389.9" stroke="rgba(255,255,255,0.18)" stroke-width="1.6" /><line x1="512" y1="231.9" x2="688" y2="266.1" stroke="rgba(255,255,255,0.18)" stroke-width="1.6" /><line x1="512" y1="231.9" x2="688" y2="360.3" stroke="rgba(255,255,255,0.18)" stroke-width="1.6" /><line x1="512" y1="288.8" x2="688" y2="266.1" stroke="rgba(255,255,255,0.18)" stroke-width="1.6" /><line x1="512" y1="288.8" x2="688" y2="360.3" stroke="rgba(255,255,255,0.18)" stroke-width="1.6" /><line x1="512" y1="343.0" x2="688" y2="266.1" stroke="rgba(255,255,255,0.18)" stroke-width="1.6" /><line x1="512" y1="343.0" x2="688" y2="360.3" stroke="rgba(255,255,255,0.18)" stroke-width="1.6" /><line x1="512" y1="389.9" x2="688" y2="266.1" stroke="rgba(255,255,255,0.18)" stroke-width="1.6" /><line x1="512" y1="389.9" x2="688" y2="360.3" stroke="rgba(255,255,255,0.18)" stroke-width="1.6" /><circle cx="160" cy="232.6" r="9" fill="rgba(189,228,255,0.82)" /><circle cx="160" cy="287.9" r="9" fill="rgba(189,228,255,0.82)" /><circle cx="160" cy="339.0" r="9" fill="rgba(189,228,255,0.82)" /><circle cx="160" cy="393.0" r="9" fill="rgba(189,228,255,0.82)" /><circle cx="336" cy="226.5" r="9" fill="rgba(189,228,255,0.82)" /><circle cx="336" cy="271.6" r="9" fill="rgba(189,228,255,0.82)" /><circle cx="336" cy="312.1" r="9" fill="rgba(189,228,255,0.82)" /><circle cx="336" cy="354.8" r="9" fill="rgba(189,228,255,0.82)" /><circle cx="336" cy="407.1" r="9" fill="rgba(189,228,255,0.82)" /><circle cx="512" cy="231.9" r="9" fill="rgba(189,228,255,0.82)" /><circle cx="512" cy="288.8" r="9" fill="rgba(189,228,255,0.82)" /><circle cx="512" cy="343.0" r="9" fill="rgba(189,228,255,0.82)" /><circle cx="512" cy="389.9" r="9" fill="rgba(189,228,255,0.82)" /><circle cx="688" cy="266.1" r="11" fill="rgba(245,179,35,0.95)" /><circle cx="688" cy="360.3" r="11" fill="rgba(245,179,35,0.95)" /></g>
</svg>
