<svg xmlns="http://www.w3.org/2000/svg" viewBox="0 0 960 600" role="img" aria-label="DISASTER CONTROL">

  <defs>
    <linearGradient id="bg" x1="0" y1="0" x2="1" y2="1">
      <stop offset="0%" stop-color="#0f172a" />
      <stop offset="100%" stop-color="#1d4ed8" />
    </linearGradient>
    <radialGradient id="spot" cx="20%" cy="15%">
      <stop offset="0%" stop-color="rgba(255,255,255,0.22)" />
      <stop offset="100%" stop-color="rgba(255,255,255,0)" />
    </radialGradient>
    <linearGradient id="accent" x1="0" y1="0" x2="1" y2="0">
      <stop offset="0%" stop-color="#f59e0b" stop-opacity="0.95" />
      <stop offset="100%" stop-color="#f59e0b" stop-opacity="0.45" />
    </linearGradient>
    <filter id="grain" x="-10%" y="-10%" width="120%" height="120%">
      <feTurbulence type="fractalNoise" baseFrequency="0.7" numOctaves="2" seed="7" />
      <feColorMatrix type="saturate" values="0" />
      <feComponentTransfer>
        <feFuncA type="table" tableValues="0 0 0.055" />
      </feComponentTransfer>
    </filter>
  </defs>
  <rect width="960" height="600" fill="url(#bg)" />
  <rect width="960" height="600" fill="url(#spot)" />
  <rect width="960" height="600" filter="url(#grain)" />
  <rect x="18" y="18" width="924" height="564" rx="26" fill="none" stroke="rgba(255,255,255,0.24)" />
  <rect x="18" y="18" width="924" height="8" rx="4" fill="url(#accent)" />
  

  <text x="46" y="74" fill="rgba(255,255,255,0.95)" font-size="30" font-family="Montserrat, Segoe UI, sans-serif" font-weight="700" letter-spacing="1.2">DISASTER CONTROL</text>
  <text x="46" y="106" fill="rgba(255,255,255,0.72)" font-size="16" font-family="Segoe UI, sans-serif" letter-spacing="1">topological response</text>
  

  <g>
    <path d="M 473.60 336.00 L 475.06 348.20 L 474.41 360.46 L 471.87 372.46 L 467.88 384.05 L 462.90 395.19 L 457.26 405.94 L 451.08 416.33 L 444.26 426.28 L 436.58 435.57 L 427.87 443.87 L 418.09 450.84 L 407.42 456.32 L 396.21 460.37 L 384.90 463.37 L 373.81 465.92 L 363.10 468.65 L 352.67 472.07 L 342.23 476.34 L 331.43 481.20 L 320.00 486.00 L 307.89 489.88 L 295.30 491.97 L 282.63 491.64 L 270.40 488.66 L 259.01 483.25 L 248.70 475.93 L 239.47 467.42 L 231.08 458.39 L 223.25 449.28 L 215.73 440.27 L 208.46 431.27 L 201.55 422.06 L 195.29 412.42 L 189.96 402.26 L 185.74 391.61 L 182.57 380.66 L 180.16 369.57 L 178.11 358.47 L 175.99 347.33 L 173.60 336.00 L 171.06 324.28 L 168.82 312.05 L 167.58 299.41 L 168.09 286.64 L 170.95 274.26 L 176.40 262.83 L 184.25 252.81 L 193.94 244.41 L 204.70 237.52 L 215.73 231.73 L 226.46 226.48 L 236.61 221.22 L 246.23 215.62 L 255.61 209.63 L 265.13 203.54 L 275.10 197.81 L 285.66 192.95 L 296.77 189.32 L 308.28 187.05 L 320.00 186.00 L 331.82 185.87 L 343.70 186.37 L 355.69 187.34 L 367.80 188.88 L 379.94 191.30 L 391.81 195.07 L 402.98 200.59 L 412.94 208.07 L 421.30 217.40 L 427.87 228.13 L 432.82 239.64 L 436.65 251.25 L 440.04 262.44 L 443.70 272.97 L 448.12 282.93 L 453.41 292.65 L 459.29 302.56 L 465.12 313.01 L 470.13 324.18 L 473.60 336.00 Z" fill="none" stroke="rgba(180,220,255,0.34)" stroke-width="2" /><path d="M 448.85 336.00 L 451.63 346.36 L 450.50 356.67 L 445.50 366.13 L 437.61 374.21 L 428.41 380.90 L 419.51 386.70 L 412.03 392.40 L 406.35 398.74 L 402.05 406.08 L 398.25 414.25 L 394.02 422.67 L 388.74 430.61 L 382.22 437.53 L 374.66 443.27 L 366.41 448.04 L 357.77 452.24 L 348.83 456.08 L 339.54 459.38 L 329.88 461.56 L 320.00 461.83 L 310.27 459.58 L 301.19 454.74 L 293.12 447.96 L 286.06 440.47 L 279.54 433.68 L 272.77 428.70 L 264.91 425.90 L 255.49 424.79 L 244.68 424.18 L 233.34 422.66 L 222.74 419.06 L 214.21 412.86 L 208.57 404.29 L 205.93 394.12 L 205.64 383.37 L 206.62 372.84 L 207.77 362.94 L 208.37 353.68 L 208.31 344.79 L 207.98 336.00 L 208.00 327.19 L 208.80 318.39 L 210.47 309.71 L 212.67 301.13 L 214.87 292.45 L 216.70 283.37 L 218.23 273.64 L 220.03 263.37 L 222.99 253.14 L 227.93 243.93 L 235.31 236.84 L 244.91 232.64 L 255.93 231.45 L 267.28 232.53 L 277.96 234.50 L 287.43 235.77 L 295.77 235.06 L 303.52 231.92 L 311.41 226.81 L 320.00 220.97 L 329.45 215.95 L 339.47 213.05 L 349.54 212.94 L 359.14 215.53 L 367.99 220.14 L 376.10 225.89 L 383.67 232.10 L 390.86 238.47 L 397.62 245.12 L 403.65 252.35 L 408.58 260.35 L 412.18 269.03 L 414.65 278.00 L 416.66 286.75 L 419.18 294.92 L 423.10 302.50 L 428.78 309.88 L 435.84 317.65 L 443.07 326.31 L 448.85 336.00 Z" fill="none" stroke="rgba(180,220,255,0.29000000000000004)" stroke-width="1.8" /><path d="M 416.66 336.00 L 416.64 343.61 L 413.70 350.84 L 407.65 357.04 L 399.44 361.81 L 391.09 365.45 L 384.80 369.02 L 381.99 373.99 L 382.62 381.50 L 385.12 391.62 L 387.09 403.09 L 386.32 413.65 L 381.75 420.99 L 373.76 423.73 L 363.86 422.08 L 353.87 417.77 L 345.11 413.28 L 337.95 410.75 L 331.90 411.16 L 326.14 414.04 L 320.00 418.00 L 313.27 421.47 L 306.14 423.52 L 298.86 424.07 L 291.53 423.64 L 284.09 422.71 L 276.56 421.26 L 269.34 418.67 L 263.25 414.11 L 259.23 407.16 L 257.73 398.27 L 258.24 388.75 L 259.19 380.18 L 258.45 373.72 L 254.27 369.49 L 246.22 366.56 L 235.59 363.43 L 225.05 358.80 L 217.62 352.22 L 215.44 344.23 L 218.84 336.00 L 226.31 328.63 L 235.18 322.57 L 242.78 317.46 L 247.51 312.45 L 249.27 306.70 L 249.22 299.94 L 248.97 292.47 L 249.77 284.97 L 252.06 277.97 L 255.57 271.57 L 259.81 265.52 L 264.47 259.57 L 269.72 253.95 L 275.94 249.52 L 283.32 247.44 L 291.57 248.52 L 299.96 252.53 L 307.64 257.97 L 314.21 262.49 L 320.00 263.82 L 325.91 260.88 L 332.93 254.38 L 341.45 246.66 L 350.93 240.80 L 360.05 239.32 L 367.28 243.20 L 371.75 251.56 L 373.63 262.18 L 374.19 272.56 L 375.12 280.88 L 377.77 286.66 L 382.54 290.56 L 388.80 293.84 L 395.34 297.61 L 401.09 302.41 L 405.59 308.19 L 409.10 314.61 L 412.10 321.41 L 414.80 328.54 L 416.66 336.00 Z" fill="none" stroke="rgba(180,220,255,0.24000000000000002)" stroke-width="1.6" /><path d="M 377.74 336.00 L 372.50 340.13 L 370.80 344.05 L 371.60 348.39 L 373.13 353.26 L 374.19 358.45 L 374.64 363.84 L 374.96 369.68 L 375.28 376.17 L 374.87 382.86 L 372.39 388.39 L 366.89 390.90 L 358.70 389.26 L 349.53 384.20 L 341.67 378.53 L 336.61 376.10 L 334.22 379.77 L 332.88 389.64 L 330.55 402.59 L 326.11 413.58 L 320.00 418.10 L 313.83 414.39 L 309.18 404.31 L 306.50 392.25 L 304.79 382.81 L 302.33 378.66 L 297.80 379.56 L 291.15 383.08 L 283.51 386.22 L 276.42 387.02 L 270.85 385.15 L 266.79 381.45 L 263.73 376.88 L 261.40 371.91 L 260.29 366.42 L 261.28 360.32 L 264.66 353.98 L 269.32 348.17 L 272.72 343.49 L 272.11 339.77 L 266.21 336.00 L 256.42 331.00 L 246.57 324.37 L 241.23 317.09 L 243.33 311.09 L 252.64 308.10 L 265.74 308.35 L 277.83 310.16 L 285.06 310.61 L 286.33 307.24 L 283.45 299.45 L 279.81 288.94 L 278.48 278.85 L 280.79 272.02 L 286.18 269.63 L 293.01 270.85 L 299.76 273.70 L 305.70 276.42 L 310.87 278.36 L 315.59 279.92 L 320.00 281.62 L 324.15 283.23 L 328.30 283.59 L 333.09 281.47 L 339.26 276.74 L 346.89 271.08 L 354.91 267.49 L 361.20 268.76 L 363.73 275.81 L 361.87 286.98 L 357.27 298.73 L 353.42 307.46 L 353.96 311.33 L 360.68 311.07 L 372.36 309.32 L 385.15 309.01 L 394.46 311.81 L 397.25 317.45 L 393.44 324.37 L 385.68 330.83 L 377.74 336.00 Z" fill="none" stroke="rgba(180,220,255,0.19)" stroke-width="1.4" />
    <path d="M 434.85 336.00 L 414.70 390.68 L 363.61 411.53 L 320.00 423.72 L 269.57 423.35 L 215.27 396.47 L 238.85 336.00 L 244.96 292.68 L 265.61 241.79 L 320.00 227.72 L 367.57 253.61 L 385.01 298.47 L 434.85 336.00 Z" fill="rgba(245,158,11,0.2)" stroke="rgba(245,158,11,0.95)" stroke-width="2.6" />
    <line x1="320" y1="174" x2="320" y2="500" stroke="rgba(255,255,255,0.18)" />
    <line x1="160" y1="336" x2="480" y2="336" stroke="rgba(255,255,255,0.18)" />
  </g>
</svg>
