<svg xmlns="http://www.w3.org/2000/svg" viewBox="0 0 960 600" role="img" aria-label="FOF INVESTMENT">

  <defs>
    <linearGradient id="bg" x1="0" y1="0" x2="1" y2="1">
      <stop offset="0%" stop-color="#14532d" />
      <stop offset="100%" stop-color="#166534" />
    </linearGradient>
    <radialGradient id="spot" cx="20%" cy="15%">
      <stop offset="0%" stop-color="rgba(255,255,255,0.22)" />
      <stop offset="100%" stop-color="rgba(255,255,255,0)" />
    </radialGradient>
    <linearGradient id="accent" x1="0" y1="0" x2="1" y2="0">
      <stop offset="0%" stop-color="#facc15" stop-opacity="0.95" />
      <stop offset="100%" stop-color="#facc15" stop-opacity="0.45" />
    </linearGradient>
    <filter id="grain" x="-10%" y="-10%" width="120%" height="120%">
      <feTurbulence type="fractalNoise" baseFrequency="0.7" numOctaves="2" seed="7" />
      <feColorMatrix type="saturate" values="0" />
      <feComponentTransfer>
        <feFuncA type="table" tableValues="0 0 0.055" />
      </feComponentTransfer>
    </filter>
  </defs>
  <rect width="960" height="600" fill="url(#bg)" />
  <rect width="960" height="600" fill="url(#spot)" />
  <rect width="960" height="600" filter="url(#grain)" />
  <rect x="18" y="18" width="924" height="564" rx="26" fill="none" stroke="rgba(255,255,255,0.24)" />
  <rect x="18" y="18" width="924" height="8" rx="4" fill="url(#accent)" />
  

  <text x="46" y="74" fill="rgba(255,255,255,0.95)" font-size="30" font-family="Montserrat, Segoe UI, sans-serif" font-weight="700" letter-spacing="1.2">FOF INVESTMENT</text>
  <text x="46" y="106" fill="rgba(255,255,255,0.72)" font-size="16" font-family="Segoe UI, sans-serif" letter-spacing="1">efficient frontier</text>
  
<g><path d="M 180.00 445.97 L 220.00 441.07 L 260.00 429.40 L 300.00 428.04 L 340.00 401.72 L 380.00 400.46 L 420.00 378.90 L 460.00 366.98 L 500.00 343.56 L 540.00 324.84 L 580.00 304.48 L 620.00 284.74 L 660.00 268.49 L 700.00 247.74 L 740.00 222.15 L 780.00 207.61" fill="none" stroke="rgba(250,204,21,0.95)" stroke-width="3.2" /><circle cx="180.0" cy="446.0" r="7" fill="rgba(250,204,21,0.95)" /><circle cx="220.0" cy="441.1" r="5" fill="rgba(255,255,255,0.72)" /><circle cx="260.0" cy="429.4" r="5" fill="rgba(255,255,255,0.72)" /><circle cx="300.0" cy="428.0" r="5" fill="rgba(255,255,255,0.72)" /><circle cx="340.0" cy="401.7" r="7" fill="rgba(250,204,21,0.95)" /><circle cx="380.0" cy="400.5" r="5" fill="rgba(255,255,255,0.72)" /><circle cx="420.0" cy="378.9" r="5" fill="rgba(255,255,255,0.72)" /><circle cx="460.0" cy="367.0" r="5" fill="rgba(255,255,255,0.72)" /><circle cx="500.0" cy="343.6" r="7" fill="rgba(250,204,21,0.95)" /><circle cx="540.0" cy="324.8" r="5" fill="rgba(255,255,255,0.72)" /><circle cx="580.0" cy="304.5" r="5" fill="rgba(255,255,255,0.72)" /><circle cx="620.0" cy="284.7" r="5" fill="rgba(255,255,255,0.72)" /><circle cx="660.0" cy="268.5" r="7" fill="rgba(250,204,21,0.95)" /><circle cx="700.0" cy="247.7" r="5" fill="rgba(255,255,255,0.72)" /><circle cx="740.0" cy="222.2" r="5" fill="rgba(255,255,255,0.72)" /><circle cx="780.0" cy="207.6" r="5" fill="rgba(255,255,255,0.72)" /></g>
</svg>
