<svg xmlns="http://www.w3.org/2000/svg" viewBox="0 0 960 600" role="img" aria-label="QUOTA STRATEGY V5">

  <defs>
    <linearGradient id="bg" x1="0" y1="0" x2="1" y2="1">
      <stop offset="0%" stop-color="#0b2239" />
      <stop offset="100%" stop-color="#245b74" />
    </linearGradient>
    <radialGradient id="spot" cx="20%" cy="15%">
      <stop offset="0%" stop-color="rgba(255,255,255,0.22)" />
      <stop offset="100%" stop-color="rgba(255,255,255,0)" />
    </radialGradient>
    <linearGradient id="accent" x1="0" y1="0" x2="1" y2="0">
      <stop offset="0%" stop-color="#fbbf24" stop-opacity="0.95" />
      <stop offset="100%" stop-color="#fbbf24" stop-opacity="0.45" />
    </linearGradient>
    <filter id="grain" x="-10%" y="-10%" width="120%" height="120%">
      <feTurbulence type="fractalNoise" baseFrequency="0.7" numOctaves="2" seed="7" />
      <feColorMatrix type="saturate" values="0" />
      <feComponentTransfer>
        <feFuncA type="table" tableValues="0 0 0.055" />
      </feComponentTransfer>
    </filter>
  </defs>
  <rect width="960" height="600" fill="url(#bg)" />
  <rect width="960" height="600" fill="url(#spot)" />
  <rect width="960" height="600" filter="url(#grain)" />
  <rect x="18" y="18" width="924" height="564" rx="26" fill="none" stroke="rgba(255,255,255,0.24)" />
  <rect x="18" y="18" width="924" height="8" rx="4" fill="url(#accent)" />
  

  <text x="46" y="74" fill="rgba(255,255,255,0.95)" font-size="30" font-family="Montserrat, Segoe UI, sans-serif" font-weight="700" letter-spacing="1.2">QUOTA STRATEGY V5</text>
  <text x="46" y="106" fill="rgba(255,255,255,0.72)" font-size="16" font-family="Segoe UI, sans-serif" letter-spacing="1">elastic boundary</text>
  
<g><path d="M 120 200 C 240 166, 360 238, 640 194" fill="none" stroke="rgba(255,255,255,0.24)" stroke-width="4" stroke-linecap="round" /><circle cx="640" cy="194" r="8" fill="rgba(245,179,35,0.95)" /><path d="M 120 272 C 264 238, 378 310, 562 266" fill="none" stroke="rgba(255,255,255,0.32)" stroke-width="3.8" stroke-linecap="round" /><circle cx="562" cy="266" r="7" fill="rgba(245,179,35,0.95)" /><path d="M 120 344 C 288 310, 396 382, 484 338" fill="none" stroke="rgba(255,255,255,0.4)" stroke-width="3.6" stroke-linecap="round" /><circle cx="484" cy="338" r="6" fill="rgba(245,179,35,0.95)" /><path d="M 120 416 C 312 382, 414 454, 406 410" fill="none" stroke="rgba(255,255,255,0.48)" stroke-width="3.4" stroke-linecap="round" /><circle cx="406" cy="410" r="5" fill="rgba(245,179,35,0.95)" /></g>
</svg>
