<svg xmlns="http://www.w3.org/2000/svg" viewBox="0 0 960 600" role="img" aria-label="RM RISK MANAGEMENT">

  <defs>
    <linearGradient id="bg" x1="0" y1="0" x2="1" y2="1">
      <stop offset="0%" stop-color="#111827" />
      <stop offset="100%" stop-color="#1f2937" />
    </linearGradient>
    <radialGradient id="spot" cx="20%" cy="15%">
      <stop offset="0%" stop-color="rgba(255,255,255,0.22)" />
      <stop offset="100%" stop-color="rgba(255,255,255,0)" />
    </radialGradient>
    <linearGradient id="accent" x1="0" y1="0" x2="1" y2="0">
      <stop offset="0%" stop-color="#f6ad2b" stop-opacity="0.95" />
      <stop offset="100%" stop-color="#f6ad2b" stop-opacity="0.45" />
    </linearGradient>
    <filter id="grain" x="-10%" y="-10%" width="120%" height="120%">
      <feTurbulence type="fractalNoise" baseFrequency="0.7" numOctaves="2" seed="7" />
      <feColorMatrix type="saturate" values="0" />
      <feComponentTransfer>
        <feFuncA type="table" tableValues="0 0 0.055" />
      </feComponentTransfer>
    </filter>
  </defs>
  <rect width="960" height="600" fill="url(#bg)" />
  <rect width="960" height="600" fill="url(#spot)" />
  <rect width="960" height="600" filter="url(#grain)" />
  <rect x="18" y="18" width="924" height="564" rx="26" fill="none" stroke="rgba(255,255,255,0.24)" />
  <rect x="18" y="18" width="924" height="8" rx="4" fill="url(#accent)" />
  

  <text x="46" y="74" fill="rgba(255,255,255,0.95)" font-size="30" font-family="Montserrat, Segoe UI, sans-serif" font-weight="700" letter-spacing="1.2">RM RISK MANAGEMENT</text>
  <text x="46" y="106" fill="rgba(255,255,255,0.72)" font-size="16" font-family="Segoe UI, sans-serif" letter-spacing="1">matrix intelligence</text>
  
<g><rect x="146" y="176" width="124" height="78" rx="8" fill="rgba(255,255,255,0.411)" stroke="rgba(255,255,255,0.22)" /><rect x="282" y="176" width="124" height="78" rx="8" fill="rgba(255,255,255,0.591)" stroke="rgba(255,255,255,0.22)" /><rect x="418" y="176" width="124" height="78" rx="8" fill="rgba(255,255,255,0.630)" stroke="rgba(255,255,255,0.22)" /><rect x="554" y="176" width="124" height="78" rx="8" fill="rgba(255,255,255,0.476)" stroke="rgba(255,255,255,0.22)" /><rect x="690" y="176" width="124" height="78" rx="8" fill="rgba(255,255,255,0.313)" stroke="rgba(255,255,255,0.22)" /><rect x="146" y="266" width="124" height="78" rx="8" fill="rgba(255,255,255,0.390)" stroke="rgba(255,255,255,0.22)" /><rect x="282" y="266" width="124" height="78" rx="8" fill="rgba(255,255,255,0.586)" stroke="rgba(255,255,255,0.22)" /><rect x="418" y="266" width="124" height="78" rx="8" fill="rgba(255,255,255,0.627)" stroke="rgba(255,255,255,0.22)" /><rect x="554" y="266" width="124" height="78" rx="8" fill="rgba(255,255,255,0.571)" stroke="rgba(255,255,255,0.22)" /><rect x="690" y="266" width="124" height="78" rx="8" fill="rgba(255,255,255,0.267)" stroke="rgba(255,255,255,0.22)" /><rect x="146" y="356" width="124" height="78" rx="8" fill="rgba(255,255,255,0.630)" stroke="rgba(255,255,255,0.22)" /><rect x="282" y="356" width="124" height="78" rx="8" fill="rgba(255,255,255,0.461)" stroke="rgba(255,255,255,0.22)" /><rect x="418" y="356" width="124" height="78" rx="8" fill="rgba(255,255,255,0.354)" stroke="rgba(255,255,255,0.22)" /><rect x="554" y="356" width="124" height="78" rx="8" fill="rgba(255,255,255,0.645)" stroke="rgba(255,255,255,0.22)" /><rect x="690" y="356" width="124" height="78" rx="8" fill="rgba(255,255,255,0.658)" stroke="rgba(255,255,255,0.22)" /></g>
</svg>
